<svg xmlns="http://www.w3.org/2000/svg" width="640" height="640" viewBox="0 0 640 640" fill="none">
  <rect width="640" height="640" fill="none"/>
  <g opacity="0.8" fill="white">
    <circle cx="74" cy="88" r="2"/>
    <circle cx="220" cy="140" r="3"/>
    <circle cx="320" cy="44" r="2.5"/>
    <circle cx="510" cy="96" r="3.2"/>
    <circle cx="420" cy="180" r="2.1"/>
    <circle cx="120" cy="240" r="3"/>
    <circle cx="300" cy="250" r="2.2"/>
    <circle cx="540" cy="210" r="2.8"/>
    <circle cx="80" cy="360" r="3.4"/>
    <circle cx="240" cy="360" r="2.6"/>
    <circle cx="430" cy="330" r="2.4"/>
    <circle cx="610" cy="280" r="2.7"/>
    <circle cx="160" cy="470" r="2.5"/>
    <circle cx="340" cy="430" r="3.4"/>
    <circle cx="520" cy="460" r="2.2"/>
    <circle cx="600" cy="520" r="2.7"/>
    <circle cx="420" cy="560" r="3"/>
    <circle cx="210" cy="560" r="2.4"/>
    <circle cx="60" cy="530" r="3.2"/>
  </g>
  <g opacity="0.6" stroke="white" stroke-width="2" stroke-linecap="round">
    <path d="M115 100l7 12m0-12l-7 12"/>
    <path d="M355 140l9 14m0-14l-9 14"/>
    <path d="M520 70l8 14m0-14l-8 14"/>
    <path d="M470 250l10 16m0-16l-10 16"/>
    <path d="M150 330l9 14m0-14l-9 14"/>
    <path d="M290 360l8 14m0-14l-8 14"/>
    <path d="M560 360l10 16m0-16l-10 16"/>
    <path d="M90 450l8 14m0-14l-8 14"/>
    <path d="M250 520l7 12m0-12l-7 12"/>
    <path d="M470 520l9 14m0-14l-9 14"/>
  </g>
  <g opacity="0.5" fill="white">
    <circle cx="24" cy="32" r="1.5"/>
    <circle cx="128" cy="24" r="1.2"/>
    <circle cx="360" cy="12" r="1.1"/>
    <circle cx="612" cy="26" r="1.4"/>
    <circle cx="270" cy="120" r="1.3"/>
    <circle cx="30" cy="190" r="1.4"/>
    <circle cx="180" cy="210" r="1.1"/>
    <circle cx="400" cy="210" r="1.3"/>
    <circle cx="620" cy="180" r="1.2"/>
    <circle cx="510" cy="260" r="1.1"/>
    <circle cx="360" cy="310" r="1.3"/>
    <circle cx="230" cy="310" r="1.1"/>
    <circle cx="100" cy="300" r="1.1"/>
    <circle cx="40" cy="360" r="1.5"/>
    <circle cx="150" cy="400" r="1.2"/>
    <circle cx="320" cy="390" r="1.3"/>
    <circle cx="560" cy="400" r="1.1"/>
    <circle cx="610" cy="430" r="1.3"/>
    <circle cx="430" cy="450" r="1.2"/>
    <circle cx="310" cy="510" r="1.4"/>
    <circle cx="120" cy="530" r="1.2"/>
    <circle cx="20" cy="600" r="1.5"/>
    <circle cx="200" cy="610" r="1.1"/>
    <circle cx="430" cy="610" r="1.3"/>
    <circle cx="620" cy="590" r="1.2"/>
  </g>
  <g opacity="0.35" stroke="white" stroke-width="1.5" stroke-linecap="round">
    <path d="M60 120l6 8m0-8l-6 8"/>
    <path d="M200 60l6 8m0-8l-6 8"/>
    <path d="M360 80l6 8m0-8l-6 8"/>
    <path d="M560 130l6 8m0-8l-6 8"/>
    <path d="M620 250l6 8m0-8l-6 8"/>
    <path d="M520 330l6 8m0-8l-6 8"/>
    <path d="M360 360l6 8m0-8l-6 8"/>
    <path d="M200 420l6 8m0-8l-6 8"/>
    <path d="M40 500l6 8m0-8l-6 8"/>
    <path d="M360 560l6 8m0-8l-6 8"/>
  </g>
</svg>
